<svg xmlns="http://www.w3.org/2000/svg" style="fill:none" viewBox="0 0 311.24 149.1"><path d="M236.69 149.1H74.55a74.55 74.55 0 1 1 0-149.1h162.14a74.55 74.55 0 1 1 0 149.1z" style="fill:#219f38"/><path d="M154.15 81.96v16.714h-9.464V45.016h17.626c16.725 0 23.832 6.059 23.832 18.166 0 12.491-8.327 18.778-23.832 18.778h-8.162zm0-28.125v19.318h8.849c8.777 0 13.314-2.916 13.314-10.199 0-6.587-3.933-9.119-13.172-9.119h-8.991zM191.14 63.022c2.499-1.92 7.036-3.444 13.551-3.444 11.052 0 16.5 3.828 16.5 13.799V98.67h-8.327v-6.899c-1.812 4.452-6.432 7.511-12.485 7.511-7.64 0-12.189-4.367-12.189-11.879 0-8.735 6.278-11.195 15.589-11.195h8.552v-1.691c0-5.448-2.57-7.128-7.64-7.128-6.965 0-10.969 2.76-13.551 6.828V63.022zm21.191 22.162V82.04h-7.486c-5.224 0-7.723.996-7.723 4.451 0 2.916 2.12 4.752 6.053 4.752 5.981-.012 8.777-3.456 9.156-6.059zM225.576 60.352h9.915l10.364 26.289 8.47-26.289h9.381l-15.138 42.391c-3.329 9.203-6.74 11.267-11.727 11.267-2.345 0-4.916-.684-6.053-1.692v-8.351c1.137 1.152 2.878 1.92 4.537 1.92 2.724 0 4.762-1.836 6.207-7.055l-15.956-38.48zM58.074 63.066v11.771l15.41 9.779 36.875-27.525a40.778 40.778 0 0 0-4.857-8.148L73.484 72.845l-15.41-9.779Z" style="fill:#fff"/><path d="M104.593 73.148c.011.276.011.564.011.84 0 17.386-13.965 31.521-31.117 31.521S42.358 91.374 42.358 73.988c0-17.386 13.965-31.521 31.117-31.521a30.587 30.587 0 0 1 17.543 5.508l7.865-5.88C91.942 36.408 83.093 33 73.463 33 51.111 33 33 51.358 33 74s18.123 41 40.463 41c22.352 0 40.464-18.358 40.464-41 0-2.508-.225-4.968-.652-7.343l-8.682 6.491z" style="fill:#fff"/></svg>
